<mxfile host="app.diagrams.net" modified="2023-12-20T19:10:52.920Z" agent="Mozilla/5.0 (Windows NT 10.0; Win64; x64; rv:121.0) Gecko/20100101 Firefox/121.0" etag="eha6mwe5y7xh5m6GwLAu" version="22.1.11" type="onedrive">
  <diagram name="Page-1" id="2YBvvXClWsGukQMizWep">
    <mxGraphModel dx="1400" dy="1744" grid="1" gridSize="10" guides="1" tooltips="1" connect="1" arrows="1" fold="1" page="1" pageScale="1" pageWidth="850" pageHeight="1100" background="#ffffff" math="0" shadow="0">
      <root>
        <mxCell id="0" />
        <mxCell id="1" parent="0" />
        <mxCell id="rudS7JQdlaALNOf9174r-44" value="" style="endArrow=open;endFill=1;endSize=12;html=1;rounded=0;exitX=0.75;exitY=1;exitDx=0;exitDy=0;edgeStyle=orthogonalEdgeStyle;elbow=vertical;entryX=1;entryY=0.5;entryDx=0;entryDy=0;" edge="1" parent="1" source="rudS7JQdlaALNOf9174r-38" target="rudS7JQdlaALNOf9174r-2">
          <mxGeometry width="160" relative="1" as="geometry">
            <mxPoint x="400" y="778" as="sourcePoint" />
            <mxPoint x="830" y="60" as="targetPoint" />
            <Array as="points">
              <mxPoint x="310" y="720" />
              <mxPoint x="830" y="720" />
              <mxPoint x="830" y="60" />
            </Array>
          </mxGeometry>
        </mxCell>
        <mxCell id="rudS7JQdlaALNOf9174r-42" value="" style="endArrow=open;endFill=1;endSize=12;html=1;rounded=0;exitX=0.607;exitY=1.007;exitDx=0;exitDy=0;exitPerimeter=0;edgeStyle=orthogonalEdgeStyle;entryX=0.5;entryY=0;entryDx=0;entryDy=0;" edge="1" parent="1" source="rudS7JQdlaALNOf9174r-38" target="rudS7JQdlaALNOf9174r-1">
          <mxGeometry width="160" relative="1" as="geometry">
            <mxPoint x="300.2800000000002" y="509.9999999999999" as="sourcePoint" />
            <mxPoint x="390" y="10" as="targetPoint" />
            <Array as="points">
              <mxPoint x="293" y="600" />
              <mxPoint x="20" y="600" />
              <mxPoint x="20" y="10" />
              <mxPoint x="390" y="10" />
            </Array>
          </mxGeometry>
        </mxCell>
        <mxCell id="rudS7JQdlaALNOf9174r-1" value="Start Menu State" style="rounded=1;whiteSpace=wrap;html=1;perimeter=rectanglePerimeter;arcSize=40;" vertex="1" parent="1">
          <mxGeometry x="330" y="30" width="120" height="60" as="geometry" />
        </mxCell>
        <mxCell id="rudS7JQdlaALNOf9174r-2" value="New Game State" style="rounded=1;whiteSpace=wrap;html=1;arcSize=40;" vertex="1" parent="1">
          <mxGeometry x="670" y="30" width="120" height="60" as="geometry" />
        </mxCell>
        <mxCell id="rudS7JQdlaALNOf9174r-3" value="" style="endArrow=open;endFill=1;endSize=12;html=1;rounded=0;entryX=0;entryY=0.5;entryDx=0;entryDy=0;" edge="1" parent="1" source="rudS7JQdlaALNOf9174r-1" target="rudS7JQdlaALNOf9174r-2">
          <mxGeometry width="160" relative="1" as="geometry">
            <mxPoint x="330" y="169.5" as="sourcePoint" />
            <mxPoint x="490" y="169.5" as="targetPoint" />
          </mxGeometry>
        </mxCell>
        <mxCell id="rudS7JQdlaALNOf9174r-4" value="&lt;font style=&quot;font-size: 10px;&quot;&gt;(key.getKeyType() == Enter)[isSelectedPlay()]&lt;/font&gt;" style="text;html=1;align=center;verticalAlign=middle;resizable=0;points=[];autosize=1;strokeColor=none;fillColor=none;" vertex="1" parent="1">
          <mxGeometry x="440" y="20" width="240" height="30" as="geometry" />
        </mxCell>
        <mxCell id="rudS7JQdlaALNOf9174r-6" value="Pause Menu State" style="rounded=1;whiteSpace=wrap;html=1;perimeter=rectanglePerimeter;arcSize=40;" vertex="1" parent="1">
          <mxGeometry x="580" y="310" width="120" height="60" as="geometry" />
        </mxCell>
        <mxCell id="rudS7JQdlaALNOf9174r-7" value="Leaderboard State" style="rounded=1;whiteSpace=wrap;html=1;perimeter=rectanglePerimeter;arcSize=40;" vertex="1" parent="1">
          <mxGeometry x="70" y="150" width="120" height="60" as="geometry" />
        </mxCell>
        <mxCell id="rudS7JQdlaALNOf9174r-8" value="" style="endArrow=open;endFill=1;endSize=12;html=1;rounded=0;entryX=0.5;entryY=0;entryDx=0;entryDy=0;exitX=0;exitY=0.5;exitDx=0;exitDy=0;" edge="1" parent="1" source="rudS7JQdlaALNOf9174r-1" target="rudS7JQdlaALNOf9174r-7">
          <mxGeometry width="160" relative="1" as="geometry">
            <mxPoint x="310" y="60" as="sourcePoint" />
            <mxPoint x="160" y="140.0000000000001" as="targetPoint" />
          </mxGeometry>
        </mxCell>
        <mxCell id="rudS7JQdlaALNOf9174r-11" value="Instructions State" style="rounded=1;whiteSpace=wrap;html=1;perimeter=rectanglePerimeter;arcSize=40;" vertex="1" parent="1">
          <mxGeometry x="60" y="260" width="120" height="60" as="geometry" />
        </mxCell>
        <mxCell id="rudS7JQdlaALNOf9174r-9" value="&lt;font style=&quot;font-size: 10px;&quot;&gt;(key.getKeyType() == Enter)[isSelectedLeaderboard()]&lt;/font&gt;" style="text;html=1;align=center;verticalAlign=middle;resizable=0;points=[];autosize=1;strokeColor=none;fillColor=none;rotation=336;" vertex="1" parent="1">
          <mxGeometry x="70" y="70" width="270" height="30" as="geometry" />
        </mxCell>
        <mxCell id="rudS7JQdlaALNOf9174r-12" value="" style="endArrow=open;endFill=1;endSize=12;html=1;rounded=0;entryX=0.5;entryY=0;entryDx=0;entryDy=0;" edge="1" parent="1" target="rudS7JQdlaALNOf9174r-11">
          <mxGeometry width="160" relative="1" as="geometry">
            <mxPoint x="380" y="90" as="sourcePoint" />
            <mxPoint x="200" y="180" as="targetPoint" />
          </mxGeometry>
        </mxCell>
        <mxCell id="rudS7JQdlaALNOf9174r-13" value="&lt;font style=&quot;font-size: 10px;&quot;&gt;(key.getKeyType() == Enter)[isSelectedInstructions()]&lt;/font&gt;" style="text;html=1;align=center;verticalAlign=middle;resizable=0;points=[];autosize=1;strokeColor=none;fillColor=none;rotation=326;" vertex="1" parent="1">
          <mxGeometry x="135" y="165" width="270" height="30" as="geometry" />
        </mxCell>
        <mxCell id="rudS7JQdlaALNOf9174r-15" value="Quit Game State" style="rounded=1;whiteSpace=wrap;html=1;perimeter=rectanglePerimeter;arcSize=40;" vertex="1" parent="1">
          <mxGeometry x="340" y="320" width="120" height="60" as="geometry" />
        </mxCell>
        <mxCell id="rudS7JQdlaALNOf9174r-16" value="" style="endArrow=open;endFill=1;endSize=12;html=1;rounded=0;entryX=0.5;entryY=0;entryDx=0;entryDy=0;" edge="1" parent="1" target="rudS7JQdlaALNOf9174r-15">
          <mxGeometry width="160" relative="1" as="geometry">
            <mxPoint x="400" y="90" as="sourcePoint" />
            <mxPoint x="380" y="255" as="targetPoint" />
          </mxGeometry>
        </mxCell>
        <mxCell id="rudS7JQdlaALNOf9174r-18" value="&lt;font style=&quot;font-size: 10px;&quot;&gt;(key.getKeyType() == Enter)[isSelectedExit()]&lt;/font&gt;" style="text;html=1;align=center;verticalAlign=middle;resizable=0;points=[];autosize=1;strokeColor=none;fillColor=none;rotation=90;" vertex="1" parent="1">
          <mxGeometry x="320" y="190" width="230" height="30" as="geometry" />
        </mxCell>
        <mxCell id="rudS7JQdlaALNOf9174r-19" value="" style="endArrow=open;endFill=1;endSize=12;html=1;rounded=0;entryX=0.75;entryY=0;entryDx=0;entryDy=0;exitX=0.25;exitY=1;exitDx=0;exitDy=0;" edge="1" parent="1" target="rudS7JQdlaALNOf9174r-6">
          <mxGeometry width="160" relative="1" as="geometry">
            <mxPoint x="740" y="90" as="sourcePoint" />
            <mxPoint x="680" y="269.9999999999999" as="targetPoint" />
          </mxGeometry>
        </mxCell>
        <mxCell id="rudS7JQdlaALNOf9174r-20" value="&lt;font style=&quot;font-size: 10px;&quot;&gt;(key.getKeyType() == Escape)&lt;/font&gt;" style="text;html=1;align=center;verticalAlign=middle;resizable=0;points=[];autosize=1;strokeColor=none;fillColor=none;rotation=288;" vertex="1" parent="1">
          <mxGeometry x="570" y="180" width="160" height="30" as="geometry" />
        </mxCell>
        <mxCell id="rudS7JQdlaALNOf9174r-22" value="&lt;font style=&quot;font-size: 10px;&quot;&gt;(key.getKeyType() == Enter)[isSelectedRestart()]&lt;/font&gt;" style="text;html=1;align=center;verticalAlign=middle;resizable=0;points=[];autosize=1;strokeColor=none;fillColor=none;rotation=108;" vertex="1" parent="1">
          <mxGeometry x="605" y="190" width="250" height="30" as="geometry" />
        </mxCell>
        <mxCell id="rudS7JQdlaALNOf9174r-23" value="" style="endArrow=open;endFill=1;endSize=12;html=1;rounded=0;entryX=0.5;entryY=1;entryDx=0;entryDy=0;exitX=0.5;exitY=0;exitDx=0;exitDy=0;" edge="1" parent="1" source="rudS7JQdlaALNOf9174r-6">
          <mxGeometry width="160" relative="1" as="geometry">
            <mxPoint x="650" y="269.9999999999999" as="sourcePoint" />
            <mxPoint x="710" y="90" as="targetPoint" />
            <Array as="points" />
          </mxGeometry>
        </mxCell>
        <mxCell id="rudS7JQdlaALNOf9174r-24" value="" style="endArrow=open;endFill=1;endSize=12;html=1;rounded=0;entryX=0.936;entryY=0.884;entryDx=0;entryDy=0;exitX=0;exitY=0.25;exitDx=0;exitDy=0;entryPerimeter=0;" edge="1" parent="1" source="rudS7JQdlaALNOf9174r-6" target="rudS7JQdlaALNOf9174r-1">
          <mxGeometry width="160" relative="1" as="geometry">
            <mxPoint x="510" y="340" as="sourcePoint" />
            <mxPoint x="580" y="120" as="targetPoint" />
            <Array as="points" />
          </mxGeometry>
        </mxCell>
        <mxCell id="rudS7JQdlaALNOf9174r-25" value="&lt;font style=&quot;font-size: 10px;&quot;&gt;(key.getKeyType() == Enter)[isSelectedExit()]&lt;/font&gt;" style="text;html=1;align=center;verticalAlign=middle;resizable=0;points=[];autosize=1;strokeColor=none;fillColor=none;rotation=60;" vertex="1" parent="1">
          <mxGeometry x="420" y="180" width="230" height="30" as="geometry" />
        </mxCell>
        <mxCell id="rudS7JQdlaALNOf9174r-26" value="" style="endArrow=open;endFill=1;endSize=12;html=1;rounded=0;exitX=0.5;exitY=1;exitDx=0;exitDy=0;edgeStyle=orthogonalEdgeStyle;entryX=0.5;entryY=1;entryDx=0;entryDy=0;" edge="1" parent="1">
          <mxGeometry width="160" relative="1" as="geometry">
            <mxPoint x="624.97" y="370" as="sourcePoint" />
            <mxPoint x="104.97" y="320" as="targetPoint" />
            <Array as="points">
              <mxPoint x="625" y="390" />
              <mxPoint x="105" y="390" />
            </Array>
          </mxGeometry>
        </mxCell>
        <mxCell id="rudS7JQdlaALNOf9174r-27" value="&lt;font style=&quot;font-size: 10px;&quot;&gt;(key.getKeyType() == Enter)[isSelectedInstructions()]&lt;/font&gt;" style="text;html=1;align=center;verticalAlign=middle;resizable=0;points=[];autosize=1;strokeColor=none;fillColor=none;rotation=0;" vertex="1" parent="1">
          <mxGeometry x="230" y="390" width="270" height="30" as="geometry" />
        </mxCell>
        <mxCell id="rudS7JQdlaALNOf9174r-28" value="" style="endArrow=open;endFill=1;endSize=12;html=1;rounded=0;exitX=0.25;exitY=1;exitDx=0;exitDy=0;" edge="1" parent="1">
          <mxGeometry width="160" relative="1" as="geometry">
            <mxPoint x="670" y="370" as="sourcePoint" />
            <mxPoint x="670" y="610" as="targetPoint" />
          </mxGeometry>
        </mxCell>
        <mxCell id="rudS7JQdlaALNOf9174r-29" value="Resume Game State" style="rounded=1;whiteSpace=wrap;html=1;perimeter=rectanglePerimeter;arcSize=40;" vertex="1" parent="1">
          <mxGeometry x="590" y="610" width="120" height="60" as="geometry" />
        </mxCell>
        <mxCell id="rudS7JQdlaALNOf9174r-31" value="" style="endArrow=open;endFill=1;endSize=12;html=1;rounded=0;entryX=0.75;entryY=1;entryDx=0;entryDy=0;exitX=0.5;exitY=0;exitDx=0;exitDy=0;" edge="1" parent="1" source="rudS7JQdlaALNOf9174r-29">
          <mxGeometry width="160" relative="1" as="geometry">
            <mxPoint x="650.76" y="599.8799999999999" as="sourcePoint" />
            <mxPoint x="650" y="370" as="targetPoint" />
          </mxGeometry>
        </mxCell>
        <mxCell id="rudS7JQdlaALNOf9174r-32" value="&lt;font style=&quot;font-size: 10px;&quot;&gt;(key.getKeyType() == Enter)[isSelectedContinue()]&lt;/font&gt;" style="text;html=1;align=center;verticalAlign=middle;resizable=0;points=[];autosize=1;strokeColor=none;fillColor=none;rotation=90;" vertex="1" parent="1">
          <mxGeometry x="560" y="470" width="260" height="30" as="geometry" />
        </mxCell>
        <mxCell id="rudS7JQdlaALNOf9174r-33" value="&lt;font style=&quot;font-size: 10px;&quot;&gt;(key.getKeyType() == Escape)&lt;/font&gt;" style="text;html=1;align=center;verticalAlign=middle;resizable=0;points=[];autosize=1;strokeColor=none;fillColor=none;rotation=270;" vertex="1" parent="1">
          <mxGeometry x="550" y="480" width="160" height="30" as="geometry" />
        </mxCell>
        <mxCell id="rudS7JQdlaALNOf9174r-35" value="New Game Round State" style="rounded=1;whiteSpace=wrap;html=1;perimeter=rectanglePerimeter;arcSize=40;" vertex="1" parent="1">
          <mxGeometry x="365" y="610" width="120" height="60" as="geometry" />
        </mxCell>
        <mxCell id="rudS7JQdlaALNOf9174r-36" value="" style="endArrow=open;endFill=1;endSize=12;html=1;rounded=0;exitX=0.5;exitY=1;exitDx=0;exitDy=0;edgeStyle=orthogonalEdgeStyle;entryX=1;entryY=0.5;entryDx=0;entryDy=0;" edge="1" parent="1" source="rudS7JQdlaALNOf9174r-35" target="rudS7JQdlaALNOf9174r-6">
          <mxGeometry width="160" relative="1" as="geometry">
            <mxPoint x="330" y="800" as="sourcePoint" />
            <mxPoint x="800" y="530" as="targetPoint" />
            <Array as="points">
              <mxPoint x="425" y="680" />
              <mxPoint x="800" y="680" />
              <mxPoint x="800" y="340" />
            </Array>
          </mxGeometry>
        </mxCell>
        <mxCell id="rudS7JQdlaALNOf9174r-37" value="&lt;font style=&quot;font-size: 10px;&quot;&gt;(key.getKeyType() == Escape)&lt;/font&gt;" style="text;html=1;align=center;verticalAlign=middle;resizable=0;points=[];autosize=1;strokeColor=none;fillColor=none;rotation=270;" vertex="1" parent="1">
          <mxGeometry x="700" y="490" width="160" height="30" as="geometry" />
        </mxCell>
        <mxCell id="rudS7JQdlaALNOf9174r-38" value="Game Over State" style="rounded=1;whiteSpace=wrap;html=1;perimeter=rectanglePerimeter;arcSize=40;" vertex="1" parent="1">
          <mxGeometry x="220" y="450" width="120" height="60" as="geometry" />
        </mxCell>
        <mxCell id="rudS7JQdlaALNOf9174r-39" value="" style="endArrow=open;endFill=1;endSize=12;html=1;rounded=0;exitX=0.592;exitY=-0.028;exitDx=0;exitDy=0;entryX=0.75;entryY=1;entryDx=0;entryDy=0;exitPerimeter=0;" edge="1" parent="1" source="rudS7JQdlaALNOf9174r-35">
          <mxGeometry width="160" relative="1" as="geometry">
            <mxPoint x="515" y="580" as="sourcePoint" />
            <mxPoint x="340" y="480" as="targetPoint" />
          </mxGeometry>
        </mxCell>
        <mxCell id="rudS7JQdlaALNOf9174r-41" value="" style="endArrow=open;endFill=1;endSize=12;html=1;rounded=0;exitX=0.5;exitY=1;exitDx=0;exitDy=0;edgeStyle=orthogonalEdgeStyle;entryX=0;entryY=0.5;entryDx=0;entryDy=0;" edge="1" parent="1" source="rudS7JQdlaALNOf9174r-38" target="rudS7JQdlaALNOf9174r-7">
          <mxGeometry width="160" relative="1" as="geometry">
            <mxPoint x="275" y="650" as="sourcePoint" />
            <mxPoint x="50" y="180" as="targetPoint" />
            <Array as="points">
              <mxPoint x="280" y="575" />
              <mxPoint x="90" y="575" />
              <mxPoint x="90" y="420" />
              <mxPoint x="30" y="420" />
              <mxPoint x="30" y="180" />
            </Array>
          </mxGeometry>
        </mxCell>
        <mxCell id="rudS7JQdlaALNOf9174r-46" value="&lt;font style=&quot;font-size: 10px;&quot;&gt;(key.getKeyType() == Enter)[isSelectedRestart()]&lt;/font&gt;" style="text;html=1;align=center;verticalAlign=middle;resizable=0;points=[];autosize=1;strokeColor=none;fillColor=none;rotation=0;" vertex="1" parent="1">
          <mxGeometry x="450" y="720" width="250" height="30" as="geometry" />
        </mxCell>
        <mxCell id="rudS7JQdlaALNOf9174r-47" value="&lt;font style=&quot;font-size: 10px;&quot;&gt;(key.getKeyType() == Enter)[isSelectedExit()]&lt;/font&gt;" style="text;html=1;align=center;verticalAlign=middle;resizable=0;points=[];autosize=1;strokeColor=none;fillColor=none;rotation=0;" vertex="1" parent="1">
          <mxGeometry x="40" y="600" width="230" height="30" as="geometry" />
        </mxCell>
        <mxCell id="rudS7JQdlaALNOf9174r-48" value="" style="endArrow=open;endFill=1;endSize=12;html=1;rounded=0;exitX=0;exitY=0.5;exitDx=0;exitDy=0;" edge="1" parent="1" source="rudS7JQdlaALNOf9174r-29">
          <mxGeometry width="160" relative="1" as="geometry">
            <mxPoint x="633" y="660" as="sourcePoint" />
            <mxPoint x="485" y="640" as="targetPoint" />
          </mxGeometry>
        </mxCell>
        <mxCell id="rudS7JQdlaALNOf9174r-49" value="&lt;font style=&quot;font-size: 10px;&quot;&gt;(getModel.getAliens.empty())&lt;/font&gt;" style="text;html=1;align=center;verticalAlign=middle;resizable=0;points=[];autosize=1;strokeColor=none;fillColor=none;rotation=0;" vertex="1" parent="1">
          <mxGeometry x="460" y="600" width="160" height="30" as="geometry" />
        </mxCell>
        <mxCell id="rudS7JQdlaALNOf9174r-50" value="&lt;font style=&quot;font-size: 10px;&quot;&gt;(getModel.getAliens.empty())&lt;/font&gt;" style="text;html=1;align=center;verticalAlign=middle;resizable=0;points=[];autosize=1;strokeColor=none;fillColor=none;rotation=90;" vertex="1" parent="1">
          <mxGeometry x="720" y="195" width="160" height="30" as="geometry" />
        </mxCell>
        <mxCell id="rudS7JQdlaALNOf9174r-52" value="" style="endArrow=open;endFill=1;endSize=12;html=1;rounded=0;edgeStyle=orthogonalEdgeStyle;elbow=vertical;entryX=0.25;entryY=1;entryDx=0;entryDy=0;" edge="1" parent="1" target="rudS7JQdlaALNOf9174r-35">
          <mxGeometry width="160" relative="1" as="geometry">
            <mxPoint x="790" y="75" as="sourcePoint" />
            <mxPoint x="420" y="700" as="targetPoint" />
            <Array as="points">
              <mxPoint x="810" y="75" />
              <mxPoint x="810" y="701" />
              <mxPoint x="395" y="701" />
            </Array>
          </mxGeometry>
        </mxCell>
        <mxCell id="rudS7JQdlaALNOf9174r-53" value="" style="endArrow=open;endFill=1;endSize=12;html=1;rounded=0;exitX=0.592;exitY=-0.028;exitDx=0;exitDy=0;entryX=0.5;entryY=1;entryDx=0;entryDy=0;exitPerimeter=0;" edge="1" parent="1">
          <mxGeometry width="160" relative="1" as="geometry">
            <mxPoint x="460" y="610" as="sourcePoint" />
            <mxPoint x="639" y="370" as="targetPoint" />
          </mxGeometry>
        </mxCell>
        <mxCell id="rudS7JQdlaALNOf9174r-54" value="&lt;font style=&quot;font-size: 10px;&quot;&gt;(key.getKeyType() == Escape)&lt;/font&gt;" style="text;html=1;align=center;verticalAlign=middle;resizable=0;points=[];autosize=1;strokeColor=none;fillColor=none;rotation=306;" vertex="1" parent="1">
          <mxGeometry x="440" y="480" width="160" height="30" as="geometry" />
        </mxCell>
        <mxCell id="rudS7JQdlaALNOf9174r-55" value="&lt;font style=&quot;font-size: 10px;&quot;&gt;(ship.isDestroyed() || alienCollidesWithCoverWalls())&lt;/font&gt;" style="text;html=1;align=center;verticalAlign=middle;resizable=0;points=[];autosize=1;strokeColor=none;fillColor=none;rotation=54;" vertex="1" parent="1">
          <mxGeometry x="260" y="500" width="260" height="30" as="geometry" />
        </mxCell>
        <mxCell id="rudS7JQdlaALNOf9174r-56" value="" style="endArrow=open;endFill=1;endSize=12;html=1;rounded=0;entryX=0;entryY=0.75;entryDx=0;entryDy=0;exitX=0.75;exitY=0;exitDx=0;exitDy=0;" edge="1" parent="1" source="rudS7JQdlaALNOf9174r-7" target="rudS7JQdlaALNOf9174r-1">
          <mxGeometry width="160" relative="1" as="geometry">
            <mxPoint x="140" y="160" as="sourcePoint" />
            <mxPoint x="340" y="70" as="targetPoint" />
          </mxGeometry>
        </mxCell>
        <mxCell id="rudS7JQdlaALNOf9174r-57" value="&lt;font style=&quot;font-size: 10px;&quot;&gt;(key.getKeyType() == Escape)&lt;/font&gt;" style="text;html=1;align=center;verticalAlign=middle;resizable=0;points=[];autosize=1;strokeColor=none;fillColor=none;rotation=336;" vertex="1" parent="1">
          <mxGeometry x="180" y="110" width="160" height="30" as="geometry" />
        </mxCell>
        <mxCell id="rudS7JQdlaALNOf9174r-58" value="" style="endArrow=open;endFill=1;endSize=12;html=1;rounded=0;exitX=0;exitY=0.25;exitDx=0;exitDy=0;edgeStyle=orthogonalEdgeStyle;entryX=0.25;entryY=1;entryDx=0;entryDy=0;" edge="1" parent="1" source="rudS7JQdlaALNOf9174r-7">
          <mxGeometry width="160" relative="1" as="geometry">
            <mxPoint x="79.9" y="165" as="sourcePoint" />
            <mxPoint x="259.95" y="510" as="targetPoint" />
            <Array as="points">
              <mxPoint x="40" y="165" />
              <mxPoint x="40" y="405" />
              <mxPoint x="100" y="405" />
              <mxPoint x="100" y="560" />
              <mxPoint x="220" y="560" />
              <mxPoint x="220" y="530" />
              <mxPoint x="260" y="530" />
            </Array>
          </mxGeometry>
        </mxCell>
        <mxCell id="rudS7JQdlaALNOf9174r-59" value="&lt;font style=&quot;font-size: 10px;&quot;&gt;(key.getKeyType() == Escape)&lt;/font&gt;" style="text;html=1;align=center;verticalAlign=middle;resizable=0;points=[];autosize=1;strokeColor=none;fillColor=none;rotation=90;" vertex="1" parent="1">
          <mxGeometry x="40" y="470" width="160" height="30" as="geometry" />
        </mxCell>
        <mxCell id="rudS7JQdlaALNOf9174r-61" value="" style="ellipse;whiteSpace=wrap;html=1;aspect=fixed;gradientColor=none;gradientDirection=radial;fillStyle=solid;fillColor=#000000;" vertex="1" parent="1">
          <mxGeometry x="100" y="40" width="40" height="40" as="geometry" />
        </mxCell>
        <mxCell id="rudS7JQdlaALNOf9174r-62" value="" style="endArrow=open;endFill=1;endSize=12;html=1;rounded=0;exitX=1;exitY=0.5;exitDx=0;exitDy=0;edgeStyle=elbowEdgeStyle;elbow=vertical;entryX=0;entryY=0.5;entryDx=0;entryDy=0;" edge="1" parent="1" source="rudS7JQdlaALNOf9174r-61" target="rudS7JQdlaALNOf9174r-1">
          <mxGeometry width="160" relative="1" as="geometry">
            <mxPoint x="270" y="30" as="sourcePoint" />
            <mxPoint x="330" y="50" as="targetPoint" />
          </mxGeometry>
        </mxCell>
        <mxCell id="rudS7JQdlaALNOf9174r-64" value="" style="ellipse;whiteSpace=wrap;html=1;aspect=fixed;gradientColor=#FFFFFF;gradientDirection=radial;fillStyle=solid;fillColor=#000000;" vertex="1" parent="1">
          <mxGeometry x="220" y="330" width="40" height="40" as="geometry" />
        </mxCell>
        <mxCell id="rudS7JQdlaALNOf9174r-65" value="" style="endArrow=open;endFill=1;endSize=12;html=1;rounded=0;exitX=0;exitY=0.5;exitDx=0;exitDy=0;edgeStyle=elbowEdgeStyle;elbow=vertical;entryX=1;entryY=0.5;entryDx=0;entryDy=0;" edge="1" parent="1" source="rudS7JQdlaALNOf9174r-15" target="rudS7JQdlaALNOf9174r-64">
          <mxGeometry width="160" relative="1" as="geometry">
            <mxPoint x="280" y="349.58" as="sourcePoint" />
            <mxPoint x="410" y="349.58" as="targetPoint" />
          </mxGeometry>
        </mxCell>
        <mxCell id="rudS7JQdlaALNOf9174r-66" value="&lt;font style=&quot;font-size: 9px;&quot;&gt;(key.getKeyType() == Enter)[isSelectedLeaderboard()]&lt;/font&gt;" style="text;html=1;align=center;verticalAlign=middle;resizable=0;points=[];autosize=1;strokeColor=none;fillColor=none;rotation=270;fontSize=9;" vertex="1" parent="1">
          <mxGeometry x="-65" y="280" width="230" height="20" as="geometry" />
        </mxCell>
        <mxCell id="rudS7JQdlaALNOf9174r-69" value="" style="endArrow=open;endFill=1;endSize=12;html=1;rounded=0;edgeStyle=orthogonalEdgeStyle;entryX=0.5;entryY=1;entryDx=0;entryDy=0;" edge="1" parent="1" target="rudS7JQdlaALNOf9174r-1">
          <mxGeometry width="160" relative="1" as="geometry">
            <mxPoint x="180" y="289.44" as="sourcePoint" />
            <mxPoint x="390" y="290" as="targetPoint" />
          </mxGeometry>
        </mxCell>
        <mxCell id="rudS7JQdlaALNOf9174r-70" value="&lt;font style=&quot;font-size: 10px;&quot;&gt;(key.getKeyType() == Escape)&lt;/font&gt;" style="text;html=1;align=center;verticalAlign=middle;resizable=0;points=[];autosize=1;strokeColor=none;fillColor=none;rotation=0;" vertex="1" parent="1">
          <mxGeometry x="210" y="260" width="160" height="30" as="geometry" />
        </mxCell>
        <mxCell id="rudS7JQdlaALNOf9174r-71" value="" style="endArrow=open;endFill=1;endSize=12;html=1;rounded=0;exitX=0.25;exitY=1;exitDx=0;exitDy=0;edgeStyle=orthogonalEdgeStyle;entryX=0.25;entryY=1;entryDx=0;entryDy=0;" edge="1" parent="1">
          <mxGeometry width="160" relative="1" as="geometry">
            <mxPoint x="80" y="320" as="sourcePoint" />
            <mxPoint x="600" y="370" as="targetPoint" />
            <Array as="points">
              <mxPoint x="80" y="330" />
              <mxPoint x="75" y="330" />
              <mxPoint x="75" y="380" />
              <mxPoint x="530" y="380" />
              <mxPoint x="530" y="370" />
            </Array>
          </mxGeometry>
        </mxCell>
        <mxCell id="rudS7JQdlaALNOf9174r-72" value="&lt;font style=&quot;font-size: 10px;&quot;&gt;(key.getKeyType() == Escape)&lt;/font&gt;" style="text;html=1;align=center;verticalAlign=middle;resizable=0;points=[];autosize=1;strokeColor=none;fillColor=none;rotation=0;" vertex="1" parent="1">
          <mxGeometry x="70" y="350" width="160" height="30" as="geometry" />
        </mxCell>
        <mxCell id="rudS7JQdlaALNOf9174r-74" value="" style="endArrow=open;endFill=1;endSize=12;html=1;rounded=0;edgeStyle=orthogonalEdgeStyle;elbow=vertical;entryX=1;entryY=0.5;entryDx=0;entryDy=0;exitX=1;exitY=0.25;exitDx=0;exitDy=0;" edge="1" parent="1" source="rudS7JQdlaALNOf9174r-2">
          <mxGeometry width="160" relative="1" as="geometry">
            <mxPoint x="790" y="40" as="sourcePoint" />
            <mxPoint x="300" y="510" as="targetPoint" />
            <Array as="points">
              <mxPoint x="790" y="40" />
              <mxPoint x="840" y="40" />
              <mxPoint x="840" y="750" />
              <mxPoint x="300" y="750" />
            </Array>
          </mxGeometry>
        </mxCell>
        <mxCell id="rudS7JQdlaALNOf9174r-75" value="&lt;font style=&quot;font-size: 10px;&quot;&gt;(ship.isDestroyed() || alienCollidesWithCoverWalls())&lt;/font&gt;" style="text;html=1;align=center;verticalAlign=middle;resizable=0;points=[];autosize=1;strokeColor=none;fillColor=none;rotation=0;" vertex="1" parent="1">
          <mxGeometry x="440" y="750" width="260" height="30" as="geometry" />
        </mxCell>
        <mxCell id="rudS7JQdlaALNOf9174r-76" value="" style="endArrow=open;endFill=1;endSize=12;html=1;rounded=0;exitX=0.592;exitY=-0.028;exitDx=0;exitDy=0;exitPerimeter=0;edgeStyle=orthogonalEdgeStyle;entryX=0.078;entryY=0.159;entryDx=0;entryDy=0;entryPerimeter=0;" edge="1" parent="1" target="rudS7JQdlaALNOf9174r-35">
          <mxGeometry width="160" relative="1" as="geometry">
            <mxPoint x="370" y="658" as="sourcePoint" />
            <mxPoint x="350" y="620" as="targetPoint" />
            <Array as="points">
              <mxPoint x="340" y="658" />
              <mxPoint x="340" y="620" />
            </Array>
          </mxGeometry>
        </mxCell>
        <mxCell id="rudS7JQdlaALNOf9174r-77" value="&lt;font style=&quot;font-size: 9px;&quot;&gt;(ship.isDestroyed() || alienCollidesWithCoverWalls())&lt;/font&gt;" style="text;html=1;align=center;verticalAlign=middle;resizable=0;points=[];autosize=1;strokeColor=none;fillColor=none;rotation=90;fontSize=9;" vertex="1" parent="1">
          <mxGeometry x="220" y="605" width="220" height="20" as="geometry" />
        </mxCell>
      </root>
    </mxGraphModel>
  </diagram>
</mxfile>
